<svg width="235" height="43" viewBox="0 0 235 43" fill="none" xmlns="http://www.w3.org/2000/svg">
<path d="M6.8 13.084H6.316V33.5H0.684V2.788H8.604L15.6 23.204H16.084V2.788H21.716V33.5H13.796L6.8 13.084ZM38.1988 34.028C34.3855 34.028 31.4961 32.972 29.5308 30.86C27.5655 28.748 26.5828 25.8733 26.5828 22.236C26.5828 20.388 26.8321 18.7307 27.3308 17.264C27.8588 15.768 28.5921 14.5067 29.5308 13.48C30.4988 12.424 31.6575 11.632 33.0068 11.104C34.3855 10.5467 35.9255 10.268 37.6268 10.268C39.3281 10.268 40.8535 10.5467 42.2028 11.104C43.5521 11.632 44.6961 12.3947 45.6348 13.392C46.5735 14.3893 47.2921 15.6067 47.7908 17.044C48.3188 18.452 48.5828 20.036 48.5828 21.796V23.732H33.0508V24.128C33.0508 25.5947 33.5055 26.7827 34.4148 27.692C35.3241 28.572 36.6588 29.012 38.4188 29.012C39.7681 29.012 40.9268 28.7627 41.8948 28.264C42.8628 27.736 43.6988 27.0467 44.4028 26.196L47.9228 30.024C47.0428 31.1093 45.8108 32.048 44.2268 32.84C42.6428 33.632 40.6335 34.028 38.1988 34.028ZM37.6708 14.932C36.2628 14.932 35.1335 15.372 34.2828 16.252C33.4615 17.1027 33.0508 18.2613 33.0508 19.728V20.08H42.2028V19.728C42.2028 18.232 41.7921 17.0587 40.9708 16.208C40.1788 15.3573 39.0788 14.932 37.6708 14.932ZM51.7776 33.5L60.2696 21.972L52.3496 10.796H59.7856L62.2056 14.448L64.0536 17.396H64.4056L66.2976 14.448L68.7616 10.796H75.5816L67.6616 21.62L76.1536 33.5H68.6736L65.8136 29.232L63.8336 26.196H63.4816L61.5456 29.232L58.6416 33.5H51.7776ZM92.1084 33.5C89.7618 33.5 88.0164 32.884 86.8724 31.652C85.7284 30.42 85.1564 28.8507 85.1564 26.944V15.856H78.9964V10.796H83.0004C83.9684 10.796 84.6578 10.6053 85.0684 10.224C85.4791 9.84266 85.6844 9.13866 85.6844 8.112V2.788H91.6684V10.796H100.512V15.856H91.6684V28.44H100.512V33.5H92.1084ZM133.302 2.788H144.082C147.103 2.788 149.406 3.52133 150.99 4.988C152.603 6.45467 153.41 8.44933 153.41 10.972C153.41 12.732 152.97 14.14 152.09 15.196C151.239 16.2227 150.007 16.9707 148.394 17.44V17.704C150.301 18.1733 151.767 18.9947 152.794 20.168C153.85 21.3413 154.378 22.9693 154.378 25.052C154.378 27.6333 153.557 29.6867 151.914 31.212C150.301 32.7373 148.027 33.5 145.094 33.5H133.302V2.788ZM143.07 28.88C144.654 28.88 145.813 28.616 146.546 28.088C147.279 27.56 147.646 26.592 147.646 25.184V23.908C147.646 22.5 147.279 21.532 146.546 21.004C145.813 20.476 144.654 20.212 143.07 20.212H139.726V28.88H143.07ZM142.234 15.812C143.789 15.812 144.918 15.5627 145.622 15.064C146.326 14.536 146.678 13.5973 146.678 12.248V10.928C146.678 9.57867 146.326 8.65467 145.622 8.156C144.918 7.65733 143.789 7.408 142.234 7.408H139.726V15.812H142.234ZM159.289 28.44H166.241V6H159.289V0.94H172.753V28.44H179.705V33.5H159.289V28.44ZM195.88 34.028C194.12 34.028 192.536 33.764 191.128 33.236C189.72 32.6787 188.517 31.8867 187.52 30.86C186.552 29.8333 185.804 28.5867 185.276 27.12C184.748 25.6533 184.484 23.996 184.484 22.148C184.484 20.3 184.748 18.6427 185.276 17.176C185.804 15.7093 186.552 14.4627 187.52 13.436C188.517 12.4093 189.72 11.632 191.128 11.104C192.536 10.5467 194.12 10.268 195.88 10.268C197.64 10.268 199.224 10.5467 200.632 11.104C202.04 11.632 203.228 12.4093 204.196 13.436C205.193 14.4627 205.956 15.7093 206.484 17.176C207.012 18.6427 207.276 20.3 207.276 22.148C207.276 23.996 207.012 25.6533 206.484 27.12C205.956 28.5867 205.193 29.8333 204.196 30.86C203.228 31.8867 202.04 32.6787 200.632 33.236C199.224 33.764 197.64 34.028 195.88 34.028ZM195.88 29.188C197.346 29.188 198.49 28.7333 199.312 27.824C200.133 26.9147 200.544 25.624 200.544 23.952V20.344C200.544 18.672 200.133 17.3813 199.312 16.472C198.49 15.5627 197.346 15.108 195.88 15.108C194.413 15.108 193.269 15.5627 192.448 16.472C191.626 17.3813 191.216 18.672 191.216 20.344V23.952C191.216 25.624 191.626 26.9147 192.448 27.824C193.269 28.7333 194.413 29.188 195.88 29.188ZM234.715 35.788C234.715 38.1933 233.703 39.968 231.678 41.112C229.655 42.256 226.472 42.828 222.131 42.828C219.96 42.828 218.171 42.696 216.763 42.432C215.355 42.1973 214.225 41.8453 213.375 41.376C212.553 40.9067 211.967 40.3493 211.615 39.704C211.292 39.0587 211.131 38.3547 211.131 37.592C211.131 36.3013 211.512 35.3187 212.275 34.644C213.037 33.9987 214.108 33.5 215.487 33.148V32.884C214.519 32.5907 213.741 32.18 213.155 31.652C212.597 31.0947 212.319 30.3173 212.319 29.32C212.319 28.2053 212.685 27.384 213.419 26.856C214.181 26.328 215.179 25.9173 216.411 25.624V25.36C215.061 24.7147 214.005 23.8053 213.243 22.632C212.509 21.4587 212.143 20.036 212.143 18.364C212.143 17.044 212.377 15.8853 212.847 14.888C213.316 13.8613 213.976 13.0107 214.827 12.336C215.707 11.6613 216.748 11.148 217.951 10.796C219.153 10.444 220.503 10.268 221.998 10.268C223.436 10.268 224.771 10.4293 226.003 10.752V9.52C226.003 8.64 226.311 7.90666 226.927 7.32C227.543 6.73333 228.393 6.44 229.479 6.44H233.483V11.192H228.027V11.588C229.259 12.2333 230.212 13.128 230.887 14.272C231.591 15.3867 231.943 16.7507 231.943 18.364C231.943 19.684 231.708 20.8427 231.239 21.84C230.769 22.8373 230.095 23.688 229.215 24.392C228.335 25.0667 227.279 25.58 226.047 25.932C224.844 26.284 223.495 26.46 221.998 26.46C221.324 26.46 220.679 26.4307 220.062 26.372C219.447 26.284 218.86 26.1667 218.303 26.02C217.98 26.196 217.701 26.416 217.467 26.68C217.261 26.944 217.159 27.2813 217.159 27.692C217.159 28.044 217.247 28.3227 217.423 28.528C217.599 28.7333 217.833 28.8947 218.127 29.012C218.449 29.1 218.816 29.1587 219.227 29.188C219.637 29.2173 220.063 29.232 220.503 29.232H225.695C227.308 29.232 228.687 29.3933 229.831 29.716C230.975 30.0387 231.913 30.4933 232.647 31.08C233.38 31.6667 233.908 32.356 234.231 33.148C234.553 33.94 234.715 34.82 234.715 35.788ZM228.555 36.272C228.555 35.6853 228.32 35.216 227.851 34.864C227.381 34.5413 226.487 34.38 225.167 34.38H217.379C216.792 34.8787 216.499 35.4947 216.499 36.228C216.499 36.932 216.792 37.504 217.379 37.944C217.995 38.4133 219.021 38.648 220.459 38.648H224.287C225.783 38.648 226.868 38.4427 227.543 38.032C228.217 37.6213 228.555 37.0347 228.555 36.272ZM221.998 22.324C223.319 22.324 224.272 22.0013 224.859 21.356C225.475 20.7107 225.783 19.8893 225.783 18.892V17.836C225.783 16.8387 225.475 16.0173 224.859 15.372C224.272 14.7267 223.319 14.404 221.998 14.404C220.708 14.404 219.769 14.7267 219.183 15.372C218.596 16.0173 218.303 16.8387 218.303 17.836V18.892C218.303 19.8893 218.596 20.7107 219.183 21.356C219.769 22.0013 220.708 22.324 221.998 22.324Z" fill="#303030"/>
</svg>
